<?xml version="1.0" standalone="no"?><!DOCTYPE svg PUBLIC "-//W3C//DTD SVG 1.1//EN" "http://www.w3.org/Graphics/SVG/1.1/DTD/svg11.dtd"><svg class="icon" width="200px" height="200.00px" viewBox="0 0 1024 1024" version="1.1" xmlns="http://www.w3.org/2000/svg"><path d="M838.72 205.76a304.96 304.96 0 0 0-22.72-22.72 448 448 0 0 0-608 0 304.96 304.96 0 0 0-22.72 22.72 448 448 0 0 0 0 612.48 304.32 304.32 0 0 0 22.72 22.72 448 448 0 0 0 608 0 304.32 304.32 0 0 0 22.72-22.72 448 448 0 0 0 0-612.48zM96 512a416 416 0 0 1 112-283.84A416 416 0 0 1 320 512a416 416 0 0 1-112 283.84A416 416 0 0 1 96 512z m416 416a416 416 0 0 1-281.28-109.76A448 448 0 0 0 352 512a448 448 0 0 0-121.28-306.24 416 416 0 0 1 562.56 0 448 448 0 0 0 0 612.48A416 416 0 0 1 512 928z m304-132.16a416 416 0 0 1 0-567.68 416 416 0 0 1 0 567.68z" /></svg>