<?xml version="1.0" standalone="no"?><!DOCTYPE svg PUBLIC "-//W3C//DTD SVG 1.1//EN" "http://www.w3.org/Graphics/SVG/1.1/DTD/svg11.dtd"><svg class="icon" width="200px" height="200.00px" viewBox="0 0 1024 1024" version="1.1" xmlns="http://www.w3.org/2000/svg"><path d="M185.28 205.76a448 448 0 0 0 0 612.48A416 416 0 0 0 320 512a416 416 0 0 0-134.72-306.24z" fill="#000000" /><path d="M816 183.04a448 448 0 0 0-608 0A448 448 0 0 1 352 512a448 448 0 0 1-144 328.96 448 448 0 0 0 608 0 448 448 0 0 1 0-657.92z" fill="#000000" /><path d="M838.72 205.76a416 416 0 0 0 0 612.48 448 448 0 0 0 0-612.48z" fill="#000000" /></svg>